<?xml version="1.0" encoding="UTF-8"?>
<svg id="Layer_1" xmlns="http://www.w3.org/2000/svg" version="1.1" viewBox="0 0 120 120" width="120" height="120">
  <defs>
    <style>
      .st0 {
        fill: #fff;
      }

      .st1 {
        fill: #ce2540;
      }
    </style>
  </defs>
  <circle class="st1" cx="60" cy="60" r="60"/>
  <g>
    <path class="st0" d="M110.1,69.3c-.2-.3-.4-.6-.8-.7-.3-.2-.7-.3-1-.3s-.7,0-1,.3c-.3.2-.6.4-.8.7s-.3.7-.3,1,0,.7.3,1c.2.3.4.6.8.7.3.2.6.3,1,.3s.7,0,1-.3c.3-.2.5-.4.8-.7.2-.3.3-.7.3-1,0-.3,0-.7-.3-1h0ZM109.9,71.2c-.2.3-.4.5-.6.6-.3.2-.5.2-.8.2s-.6,0-.8-.2-.5-.4-.6-.6c-.2-.3-.2-.5-.2-.9s0-.6.2-.8c.2-.3.4-.5.6-.6s.5-.2.8-.2.6,0,.8.2.5.4.6.6c.2.3.2.5.2.8,0,.3,0,.6-.2.9h0Z"/>
    <path class="st0" d="M38,47.6c-.2,0-5.4-.8-11.5,1.4-5.6,2-13.1,6.8-16.7,18.6-.6,2,0,4.7,4.2,4.3h15.5c1.7,0,3.2-1.4,3.2-3.2s-1.4-3.2-3.2-3.2h-12.2c4.6-9.8,12.8-11.6,17.1-11.8v15.1c0,1.7,1.4,3.2,3.2,3.2s3.2-1.4,3.2-3.2v-18.1c0-1.6-1.2-2.9-2.7-3.1h0Z"/>
    <path class="st0" d="M69.8,47.5c.2,0,0,0,0,0,0,0-.2,0,0,0h0Z"/>
    <path class="st0" d="M69.8,47.5c-3.9,0-6.5,1.4-8.4,3.4-1.7-1.8-4.5-3.4-8.4-3.4-4.3-.3-11.8,3.6-11.2,10.6v10.7c0,1.7,1.4,3.2,3.2,3.2s3.2-1.4,3.2-3.2v-10.7c0-3.7,4-4.3,4.9-4.3,4.5-.1,5.2,3.8,5.2,4.3v10.7c0,1.7,1.5,3.2,3.2,3.2s3.2-1.4,3.2-3.2v-10.7c.2-3.9,3.9-4.4,5.2-4.3.7,0,4.7.3,4.9,4.3v10.7c0,1.7,1.4,3.2,3.2,3.2s3.2-1.4,3.2-3.2v-10.7c.1-.6-.4-10.2-11.2-10.6h0Z"/>
    <path class="st0" d="M105.9,61.7c-1.5-.8-3.5-.2-4.2,1.4-1.2,2.3-3.5,3.7-6.1,3.7s-3.5-.7-4.8-2c-1.3-1.3-2-3-2-4.8s.7-3.5,2-4.8c1.3-1.3,3-2,4.8-2,2.8,0,5.3,1.5,6.2,3.8.7,1.6,2.5,2.3,4.2,1.6,1.6-.7,2.3-2.5,1.6-4.2-2-4.5-6.8-7.6-12-7.6s-13.1,5.9-13.1,13.1,1.4,6.8,3.9,9.3c2.5,2.5,5.8,3.9,9.3,3.9s9.5-2.8,11.7-7.2c.8-1.6.2-3.5-1.4-4.2h0Z"/>
    <path class="st0" d="M109,70.8c0-.2-.2-.3-.3-.4.2,0,.3-.2.4-.3,0-.1.1-.3.1-.4s0-.2,0-.3c0-.1-.2-.2-.2-.2s-.2,0-.5,0h-.8v2.5h.4v-1.1h.3s.1,0,.2.2v.2c0,0,.4.6.4.6h.5l-.4-.7h0ZM108.3,70.2h-.3v-.8h.3c.2,0,.2,0,.3,0s0,0,.1.2,0,.1,0,.2c0,.1,0,.2-.1.3,0,.1-.2.2-.4.2h0Z"/>
  </g>
  <metadata>
    <sfw xmlns="http://ns.adobe.com/SaveForWeb/1.0/">
      <slices/>
      <sliceSourceBounds x="137.9" y="138" width="120" height="120" bottomLeftOrigin="true"/>
    </sfw>
  </metadata>
</svg>