<?xml version="1.0" encoding="UTF-8"?>
<svg id="Layer_1" xmlns="http://www.w3.org/2000/svg" version="1.1" viewBox="0 0 120 136.2" width="120" height="136.2">
  <defs>
    <style>
      .st0 {
        fill: #bea77a;
      }
    </style>
  </defs>
  <path class="st0" d="M60,0l60,136.2h-38l-5-11.7h-6c-1.2-1.7-1.1-2.1-3.1-2.3-4.5-.2-5.1-.8-5.1-4.2s1.3-8.7,1.5-10.9c.1-2.8-.2-3.8-.2-5.8s1.3-4.2,1.5-8.8c.2-4.6-.9-8-.9-8,1-.1,2.1-.8,2.5-1.6.5-1.2,2-7.4,2-10s-.1-2-.3-2.7c-1.1-2.6-4.3-2.1-5.7-3.8-.4-.5-.7-.5-.8-2.3.7-1,1-2.6,1-4.8s-1.4-3.3-3.3-3.3-3.3,1.4-3.3,3.3.2,3.7,1,4.8c0,1.8-.3,1.8-.8,2.3-1.4,1.6-4.6,1.2-5.7,3.8-.2.7-.3,1.6-.3,2.7,0,2.5,1.5,8.8,2,10,.4.8,1.5,1.5,2.5,1.6,0,0-1.1,3.3-.9,8,.2,4.6,1.5,6.8,1.5,8.8s-.4,3-.2,5.8c.1,2.2,1.5,7.9,1.5,10.9s-.6,3.9-5.1,4.2c-2,.2-1.9.6-3.1,2.3h-6l-5,11.7H0L60,0Z"/>
  <metadata>
    <sfw xmlns="http://ns.adobe.com/SaveForWeb/1.0/">
      <slices/>
      <sliceSourceBounds x="336" y="244.6" width="120" height="136.19" bottomLeftOrigin="true"/>
      <optimizationSettings>
        <targetSettings fileFormat="PNG24Format" targetSettingsID="0">
          <PNG24Format filtered="false" interlaced="false" matteColor="#FFFFFF" noMatteColor="false" transparency="true"/>
        </targetSettings>
      </optimizationSettings>
    </sfw>
  </metadata>
</svg>