<?xml version="1.0" encoding="UTF-8"?>
<svg id="Layer_1" xmlns="http://www.w3.org/2000/svg" version="1.1" viewBox="0 0 120 62.6" width="120" height="62.6">
  <defs>
    <style>
      .st0 {
        fill: #ff6900;
      }
    </style>
  </defs>
  <path class="st0" d="M64.3,4.8l8.2,10.3-2.9,12.8-11.8,5.7-11.8-5.7-2.9-12.8,8.2-10.3h13.2ZM57.8,0l-14.4,6.9-3.6,15.6,10,12.5h16l10-12.5-3.6-15.6L57.8,0ZM59.7,18.2c1.4,0,2.2-.1,2.7-.5.2-.2.3-.5.3-.8s0-.6-.3-.9c-.3-.3-1-.4-2.6-.4h-5.9v2.6s5.9,0,5.9,0ZM66,23.9h0s-4.3,0-4.3,0l-4.2-3.5h-3.7v3.5h-3.1v-10.9h9c3.3,0,4.4.4,5.2,1.2.7.7.9,1.6.9,2.5s-.2,1.8-.9,2.5c-.6.6-1.5,1-3.4,1.2l4.5,3.5ZM25.1,62.6h18.9v-3.3h-14.7v-2.4h10.6v-3.1h-10.6v-2.4h14.7v-3.3h-18.9v14.5h0ZM100.8,59.3v-11.2h-4.1v14.5h18.9v-3.3h-14.7ZM85.5,48.1h-6.1l-7.9,14.5h4.4l1.6-3h9.8l1.6,3h4.6l-7.9-14.5ZM79.1,56.6l3.2-6.1,3.2,6.1h-6.5ZM12,54.9c1.9,0,3-.1,3.5-.7.3-.3.4-.7.4-1.1s-.1-.8-.4-1.1c-.5-.5-1.4-.5-3.5-.5h-7.8v3.5h7.8ZM20.3,62.6h0c0,0-5.8,0-5.8,0l-5.6-4.6h-4.8v4.6H0v-14.5h12c4.4,0,5.8.5,6.9,1.6s1.2,2.2,1.2,3.3-.2,2.3-1.2,3.3c-.8.8-2,1.4-4.5,1.6l6,4.7ZM56,59.3c-1.7,0-2.5-.3-3.1-.7-.8-.6-1.3-1.9-1.3-3.2s.5-2.6,1.3-3.2c.6-.4,1.3-.7,3.1-.7h11.9v-3.3h-11.9c-3.4,0-4.8.4-6.1,1.5-1.6,1.3-2.4,3.2-2.4,5.8s.8,4.5,2.4,5.8c1.3,1.1,2.6,1.5,6.1,1.5h11.9v-8.8h-10.2v3.1h6v2.4h-7.8ZM119.1,61.5h0s.2.3.2.3h0c0,0,0,.1,0,.1h-.1c0,0-.2-.4-.2-.4h0s-.2,0-.2,0h0v.3h0c0,0,0,0,0,0h0v-.9h0c0,0,.4,0,.4,0,.2,0,.3,0,.3.3,0,.1,0,.2-.2.3ZM119.1,61.2c0,0,0-.1-.1-.1h-.3v.2h0s.3,0,.3,0c0,0,.1,0,.1-.1ZM120,61.4c0,.6-.5,1.2-1.2,1.2s-1.2-.5-1.2-1.2.5-1.2,1.2-1.2c.6,0,1.2.5,1.2,1.2ZM119.7,61.4c0-.5-.4-.9-.9-.9s-.9.4-.9.9.4.9.9.9.9-.4.9-.9Z"/>
  <metadata>
    <sfw xmlns="http://ns.adobe.com/SaveForWeb/1.0/">
      <slices/>
      <sliceSourceBounds x="32.89" y="25.81" width="120" height="62.62" bottomLeftOrigin="true"/>
    </sfw>
  </metadata>
</svg>